<svg viewBox="0 0 235 250" fill="#2a125e" xmlns="http://www.w3.org/2000/svg">
    <mask id="a-mask">
        <rect x="0" y="0" width="100%" height="100%" fill="white" />
        <path fill="black" d="M 86 143 L 112 46 C 113 42, 113 41, 115 41 L 120 41 C 122 41, 122 42, 123 46 L 149 143 Z" />
    </mask>
    <path id="a-outline" mask="url(#a-mask)" d="M 53 250 L 2 250 C 0 250, 1 248, 2 245 L 72 20 C 75 10, 76 0, 95 0 L 140 0 C 159 0, 160 10, 163 20 L 233 245 C 234 248, 235 250, 233 250 L 182 250 C 180 250, 179 248, 178 245 L 161 184 L 74 184 L 57 245 C 56 248, 55 250, 53 250 Z" />    
</svg>